<svg width="120" height="57" viewBox="0 0 120 57" fill="none" xmlns="http://www.w3.org/2000/svg">
<rect width="120" height="57" fill="#F5F5F5"/>
<g id="Landing - Furniture - Responsive">
<g id="Hero">
<rect width="375" height="574" transform="translate(-20 -12)" fill="white"/>
<g id="Logo">
<g id="coca">
<path d="M58.4104 30.844L62.3331 32.8763C61.5129 33.9465 60.4847 34.8061 59.2485 35.455C58.0122 36.104 56.663 36.4285 55.2009 36.4285C53.5605 36.4285 52.0628 36.0243 50.7077 35.2159C49.3644 34.4076 48.2887 33.326 47.4803 31.9712C46.6839 30.6049 46.2857 29.0964 46.2857 27.4455C46.2857 26.1932 46.5175 25.0262 46.9811 23.9446C47.4447 22.8516 48.0806 21.8953 48.889 21.0755C49.7092 20.2444 50.6601 19.5954 51.7418 19.1287C52.8236 18.6619 53.9766 18.4285 55.2009 18.4285C56.663 18.4285 58.0122 18.7529 59.2485 19.4019C60.4847 20.0509 61.5129 20.9218 62.3331 22.0148L58.4104 24.03C57.9944 23.5746 57.5011 23.2216 56.9305 22.9712C56.3718 22.7207 55.7953 22.5954 55.2009 22.5954C54.3451 22.5954 53.5724 22.8232 52.883 23.2786C52.1935 23.7226 51.6467 24.3146 51.2426 25.0547C50.8384 25.7833 50.6363 26.5803 50.6363 27.4455C50.6363 28.2994 50.8384 29.0964 51.2426 29.8364C51.6467 30.5651 52.1935 31.1514 52.883 31.5955C53.5724 32.0395 54.3451 32.2615 55.2009 32.2615C55.8191 32.2615 56.4075 32.1362 56.9662 31.8858C57.5249 31.6239 58.0063 31.2767 58.4104 30.844Z" fill="#101010"/>
<path d="M72.8225 36.4285C71.1821 36.4285 69.6843 36.0243 68.3292 35.2159C66.986 34.4076 65.9102 33.326 65.1019 31.9712C64.3055 30.6049 63.9072 29.0964 63.9072 27.4455C63.9072 26.1932 64.139 25.0262 64.6026 23.9446C65.0662 22.8516 65.7022 21.8953 66.5105 21.0755C67.3307 20.2444 68.2816 19.5954 69.3634 19.1287C70.4451 18.6619 71.5981 18.4285 72.8225 18.4285C74.4629 18.4285 75.9547 18.8326 77.2979 19.641C78.653 20.4493 79.7288 21.5366 80.5252 22.9028C81.3336 24.2691 81.7377 25.7833 81.7377 27.4455C81.7377 28.6865 81.5059 29.8478 81.0423 30.9294C80.5787 32.011 79.9368 32.9674 79.1166 33.7985C78.3083 34.6182 77.3633 35.2615 76.2816 35.7283C75.2118 36.1951 74.0587 36.4285 72.8225 36.4285ZM72.8225 32.2615C73.6902 32.2615 74.4688 32.0395 75.1583 31.5955C75.8477 31.1514 76.3886 30.5651 76.7808 29.8364C77.185 29.1078 77.3871 28.3108 77.3871 27.4455C77.3871 26.5575 77.1791 25.7491 76.763 25.0205C76.3589 24.2805 75.8061 23.6941 75.1048 23.2615C74.4153 22.8175 73.6546 22.5954 72.8225 22.5954C71.9666 22.5954 71.194 22.8175 70.5045 23.2615C69.8151 23.7055 69.2683 24.2975 68.8641 25.0376C68.46 25.7776 68.2579 26.5803 68.2579 27.4455C68.2579 28.345 68.4659 29.159 68.8819 29.8877C69.298 30.6163 69.8507 31.197 70.5402 31.6296C71.2415 32.0509 72.0023 32.2615 72.8225 32.2615Z" fill="#101010"/>
<path d="M95.6385 30.844L99.5612 32.8763C98.741 33.9465 97.7128 34.8061 96.4766 35.455C95.2403 36.104 93.8911 36.4285 92.429 36.4285C90.7886 36.4285 89.2909 36.0243 87.9358 35.2159C86.5925 34.4076 85.5168 33.326 84.7084 31.9712C83.912 30.6049 83.5138 29.0964 83.5138 27.4455C83.5138 26.1932 83.7456 25.0262 84.2092 23.9446C84.6728 22.8516 85.3087 21.8953 86.1171 21.0755C86.9373 20.2444 87.8882 19.5954 88.9699 19.1287C90.0516 18.6619 91.2047 18.4285 92.429 18.4285C93.8911 18.4285 95.2403 18.7529 96.4766 19.4019C97.7128 20.0509 98.741 20.9218 99.5612 22.0148L95.6385 24.03C95.2225 23.5746 94.7292 23.2216 94.1586 22.9712C93.5999 22.7207 93.0234 22.5954 92.429 22.5954C91.5732 22.5954 90.8005 22.8232 90.1111 23.2786C89.4216 23.7226 88.8748 24.3146 88.4707 25.0547C88.0665 25.7833 87.8644 26.5803 87.8644 27.4455C87.8644 28.2994 88.0665 29.0964 88.4707 29.8364C88.8748 30.5651 89.4216 31.1514 90.1111 31.5955C90.8005 32.0395 91.5732 32.2615 92.429 32.2615C93.0472 32.2615 93.6356 32.1362 94.1943 31.8858C94.753 31.6239 95.2344 31.2767 95.6385 30.844Z" fill="#101010"/>
<path d="M115.649 18.9066H120V35.9844H115.649L115.453 33.8668C114.966 34.6296 114.318 35.2501 113.51 35.7283C112.713 36.1951 111.768 36.4285 110.675 36.4285C109.355 36.4285 108.119 36.1894 106.966 35.7112C105.813 35.233 104.797 34.5727 103.917 33.7302C103.049 32.8877 102.366 31.9142 101.866 30.8099C101.379 29.7055 101.135 28.5214 101.135 27.2577C101.135 26.0395 101.367 24.8953 101.831 23.8251C102.306 22.7548 102.966 21.8156 103.81 21.0072C104.654 20.1989 105.629 19.567 106.734 19.1116C107.84 18.6562 109.028 18.4285 110.3 18.4285C111.477 18.4285 112.529 18.6789 113.456 19.1799C114.395 19.6808 115.192 20.3184 115.845 21.0926L115.649 18.9066ZM110.568 32.4152C111.495 32.4152 112.315 32.1932 113.028 31.7492C113.741 31.3051 114.3 30.7074 114.704 29.956C115.108 29.1932 115.311 28.3564 115.311 27.4455C115.311 26.5233 115.108 25.6865 114.704 24.9351C114.3 24.1723 113.736 23.5689 113.01 23.1249C112.297 22.6808 111.483 22.4588 110.568 22.4588C109.652 22.4588 108.814 22.6865 108.054 23.1419C107.305 23.586 106.704 24.1837 106.253 24.9351C105.813 25.6865 105.593 26.5233 105.593 27.4455C105.593 28.3677 105.819 29.2046 106.271 29.956C106.722 30.7074 107.323 31.3051 108.071 31.7492C108.832 32.1932 109.664 32.4152 110.568 32.4152Z" fill="#101010"/>
</g>
<g id="Group 33107">
<circle id="Ellipse 1" cx="18" cy="26.1428" r="18" fill="#F16F4F"/>
<path id="c" d="M23.5271 30.3782L27.4286 32.3495C26.4777 33.5856 25.2681 34.5744 23.7998 35.3161C22.3454 36.0578 20.7653 36.4286 19.0593 36.4286C17.1295 36.4286 15.3675 35.9667 13.7734 35.0429C12.1932 34.119 10.9277 32.8829 9.97678 31.3345C9.03987 29.7731 8.57141 28.0491 8.57141 26.1624C8.57141 24.7311 8.8441 23.3974 9.38946 22.1613C9.93483 20.9122 10.683 19.8192 11.6339 18.8824C12.5987 17.9325 13.7174 17.1909 14.99 16.6574C16.2625 16.1239 17.6189 15.8572 19.0593 15.8572C20.7653 15.8572 22.3454 16.228 23.7998 16.9697C25.2681 17.7113 26.4777 18.7067 27.4286 19.9558L23.5271 21.9271C22.9398 21.2765 22.2545 20.7821 21.4715 20.4438C20.6884 20.0925 19.8843 19.9168 19.0593 19.9168C17.9126 19.9168 16.8708 20.2096 15.9339 20.7951C15.0109 21.3676 14.2768 22.1288 13.7314 23.0786C13.2 24.0155 12.9344 25.0434 12.9344 26.1624C12.9344 27.2684 13.207 28.2963 13.7524 29.2462C14.2978 30.183 15.0319 30.9377 15.9549 31.5102C16.8918 32.0827 17.9266 32.369 19.0593 32.369C19.9263 32.369 20.7513 32.1868 21.5344 31.8225C22.3175 31.4582 22.9817 30.9767 23.5271 30.3782Z" fill="white"/>
</g>
</g>
</g>
</g>
</svg>
